<?xml version="1.0" encoding="utf-8"?>
<!-- Generator: Adobe Illustrator 16.0.0, SVG Export Plug-In . SVG Version: 6.00 Build 0)  -->
<!DOCTYPE svg PUBLIC "-//W3C//DTD SVG 1.1//EN" "http://www.w3.org/Graphics/SVG/1.1/DTD/svg11.dtd">
<svg version="1.1" id="Layer_1" xmlns="http://www.w3.org/2000/svg" xmlns:xlink="http://www.w3.org/1999/xlink" x="0px" y="0px"
	   viewBox="0 0 540 120" enable-background="new 0 0 540 120" xml:space="preserve">
<g>
	<defs>
		<rect id="SVGID_1_" x="-0.16" y="-0.4" width="540.24" height="120.24"/>
	</defs>
	<clipPath id="SVGID_2_">
		<use xlink:href="#SVGID_1_"  overflow="visible"/>
	</clipPath>
	<polygon clip-path="url(#SVGID_2_)" fill="#221F1F" points="525.56,66.439 523.88,66.439 523.88,65.359 528.32,65.359 
		528.32,66.439 526.64,66.439 526.64,71.359 525.56,71.359 	"/>
	<polygon clip-path="url(#SVGID_2_)" fill="#221F1F" points="533.48,70.641 532.04,70.641 530.84,67.52 530.84,71.359 
		529.64,71.359 529.88,65.359 531.2,65.359 532.76,69.68 534.2,65.359 535.52,65.359 535.76,71.359 534.56,71.359 534.56,67.52 	"/>
	<path clip-path="url(#SVGID_2_)" fill="#C91831" d="M78.56,41.48l-10.8-4.44c-4.68-1.8-12.12,5.52-14.52,10.32
		c0-8.28-3-13.92-6.6-17.52C43.16,26.24,21.8,6.56,20.36,5.12c-1.44-1.44-2.16-1.8-2.16,0v3.84c0,1.2,0.36,2.04,1.08,2.88
		c2.16,2.04,21.84,21.6,24,23.88c3.6,3.84,5.52,8.52,7.08,14.76c0,0-0.36,0.72-0.96,0.12c-6-5.88-37.92-36.6-39.96-38.28
		c-1.92-1.68-2.76-2.28-2.76,0.12V54.8c0,4.32,1.44,7.681,4.2,11.04c2.4,2.76,14.4,14.52,18.6,18.721
		C22.4,91.4,4.16,104.119,4.16,104.119h20.16L27.8,115.4c0,0,22.08-21.121,39.12-57.48C72.68,45.44,78.56,41.48,78.56,41.48z
		 M125.84,40.28c-0.72,0-33.96,5.04-39.96,6c-6,1.08-9.72,6.48-10.44,8.4c-0.6,1.2,0.12,1.44,0.84,1.08
		c0.96-0.36,4.32-2.76,12.6-3.96c5.76-0.96,20.4-3.24,29.28-4.8c4.44-0.72,7.32-3.96,8.52-5.4C127.76,40.4,126.8,40.16,125.84,40.28
		z M125.6,52.4c-3.12,0.48-48,8.16-51.36,9c-1.68,0.479-2.52,1.68-2.88,2.4c-7.2,16.439-15.6,30-16.2,30.84
		c-0.48,0.84,0.24,1.318,2.16,0.959c6.12-1.32,23.88-3.119,30.96-4.92c5.52-1.439,8.52-3.359,10.44-5.52
		c1.92-2.16,25.08-27.84,27.96-30.96C128.12,52.52,126.92,52.28,125.6,52.4z"/>
	<path clip-path="url(#SVGID_2_)" fill="#221F1F" d="M153.44,79.641h11.88l-5.88-20.281L153.44,79.641z M167.36,86.721h-15.84
		l-2.76,8.879h-8.52l13.68-42.96h10.56c0.84,0,1.08,1.32,1.08,1.32l13.08,41.64h-8.52L167.36,86.721z"/>
	<path clip-path="url(#SVGID_2_)" fill="#221F1F" d="M190.28,89.24c1.44,0.24,3,0.24,4.68,0.24c5.16,0,6.24-2.041,6.24-5.641v-9.721
		c0-2.52-1.08-3.84-3.96-3.84c-2.28,0-5.04,0.84-6.96,1.801V89.24z M209,83.48c0,7.68-2.28,12.719-14.4,12.719
		c-3.12,0-8.28-0.24-12.12-1.08V54.08l6.48-1.32c0,0,1.32-0.48,1.32,1.32v11.28c2.4-0.959,5.88-1.799,9.36-1.799
		c6.72,0,9.36,4.08,9.36,10.799V83.48z"/>
	<path clip-path="url(#SVGID_2_)" fill="#221F1F" d="M267.56,80.84c0-2.881-1.32-4.32-4.56-4.32h-9v12.359h8.4
		c3.6,0,5.16-1.078,5.16-4.199V80.84z M266.12,62.84c0-2.4-1.32-3.48-4.32-3.48H254v11.281h7.8c3.12,0,4.32-1.441,4.32-3.961V62.84z
		 M245.96,95.6V52.64h16.8c8.16,0,11.4,3.36,11.4,9.12v4.439c0,3.602-1.44,5.641-4.68,6.961c3.84,0.959,6.239,3.84,6.239,8.039
		v4.561c0,6-3.96,9.84-11.76,9.84H245.96z"/>
	<path clip-path="url(#SVGID_2_)" fill="#221F1F" d="M294.8,70.279c-4.08,0-5.76,1.801-5.76,5.4v8.4c0,3.6,1.68,5.4,5.76,5.4
		c4.2,0,5.88-1.801,5.88-5.4v-8.4C300.68,72.08,299,70.279,294.8,70.279z M294.8,96.199c-10.68,0-13.56-5.879-13.56-12.359v-7.92
		c0-6.48,2.88-12.359,13.56-12.359c10.8,0,13.681,5.879,13.681,12.359v7.92C308.48,90.32,305.6,96.199,294.8,96.199z"/>
	<path clip-path="url(#SVGID_2_)" fill="#221F1F" d="M327.08,70.279c-4.2,0-5.76,1.801-5.76,5.4v8.4c0,3.6,1.56,5.4,5.76,5.4
		s5.76-1.801,5.76-5.4v-8.4C332.84,72.08,331.28,70.279,327.08,70.279z M327.08,96.199c-10.8,0-13.68-5.879-13.68-12.359v-7.92
		c0-6.48,2.88-12.359,13.68-12.359s13.68,5.879,13.68,12.359v7.92C340.76,90.32,337.88,96.199,327.08,96.199z"/>
	<path clip-path="url(#SVGID_2_)" fill="#221F1F" d="M453.2,70.279c-4.2,0-5.761,1.801-5.761,5.4v8.4c0,3.6,1.561,5.4,5.761,5.4
		s5.88-1.801,5.88-5.4v-8.4C459.08,72.08,457.4,70.279,453.2,70.279z M453.2,96.199c-10.681,0-13.681-5.879-13.681-12.359v-7.92
		c0-6.48,3-12.359,13.681-12.359c10.8,0,13.68,5.879,13.68,12.359v7.92C466.88,90.32,464,96.199,453.2,96.199z"/>
	<path clip-path="url(#SVGID_2_)" fill="#221F1F" d="M491,95.6V73.641c0-1.682-0.72-2.521-2.52-2.521c-2.04,0-5.4,1.201-8.28,2.641
		V95.6h-7.8v-30.24l5.279-0.959c0.721-0.121,0.96,0.479,0.96,0.479l0.48,1.922c3.96-1.922,9-3.24,12.6-3.24
		c3,0,4.92,1.199,5.88,3.359c3.841-1.92,8.881-3.359,12.721-3.359c5.16,0,7.08,3.719,7.08,9.24V95.6h-7.92V73.641
		c0-1.682-0.721-2.521-2.521-2.521c-1.92,0-5.64,1.32-8.16,2.641V95.6H491z"/>
	<path clip-path="url(#SVGID_2_)" fill="#221F1F" d="M222.32,75.08c0-3,1.32-5.041,5.16-5.041c3.96,0,4.8,2.041,4.8,5.041v1.439
		h-9.96V75.08z M236.96,88.641c-3,0.719-5.76,1.199-8.52,1.199c-4.8,0-6.12-1.561-6.12-5.279v-1.682h17.52V76.16
		c0-6.721-2.28-12.6-12.36-12.6s-13.08,5.639-13.08,12.24v8.279c0,7.561,3.48,12.119,13.32,12.119c3.36,0,7.08-0.479,10.32-1.559
		v-4.92C238.04,88.879,237.56,88.52,236.96,88.641z"/>
	<path clip-path="url(#SVGID_2_)" fill="#221F1F" d="M366.56,64.4l-12.119,14.16V54.08c0-1.2-1.08-0.96-1.08-0.96l-6.841,1.32V95.6
		h7.921V80.959L366.8,95.6h8.641L361.88,79.76L374.84,64.4H366.56z"/>
	<path clip-path="url(#SVGID_2_)" fill="#221F1F" d="M434,89c-1.68,0.359-3.48,0.48-5.04,0.48c-4.56,0-5.88-1.32-5.88-5.16v-8.76
		c0-3.84,1.32-5.16,5.88-5.16c1.44,0,3.96,0.24,6,0.719v-6c0-0.6-0.479-0.84-0.72-0.959c-1.92-0.359-3.96-0.6-5.521-0.6
		c-9.84,0-13.439,3.6-13.439,12.119v8.52c0,8.521,3.6,12.121,13.439,12.121c2.04,0,4.44-0.361,6.24-0.84V89.84
		C434.96,89.24,434.6,88.879,434,89z"/>
	<path clip-path="url(#SVGID_2_)" fill="#221F1F" d="M396.32,64.279c-2.4-0.359-5.16-0.719-7.44-0.719c-9,0-11.76,2.879-11.76,9.119
		c0,6.121,0.84,8.041,8.52,9.84c5.16,1.201,5.521,2.16,5.521,4.201c0,2.279-0.48,3.119-3.96,3.119c-2.76,0-5.521-0.359-7.92-0.961
		c-0.48-0.119-1.32,0-1.32,0.842v5.158c2.88,0.842,6.72,1.441,9.6,1.441c9.48,0,11.28-3.84,11.28-9.84c0-6.48-0.84-7.561-9.6-9.961
		c-4.2-1.08-4.44-1.199-4.44-3.719c0-1.922,0.601-2.762,4.08-2.762c2.28,0,5.88,0.48,8.28,0.84v-5.52
		C397.16,64.641,396.68,64.4,396.32,64.279z"/>
	<path clip-path="url(#SVGID_2_)" fill="#221F1F" d="M404,87.801h5.88c1.08,0,1.08,1.078,1.08,1.078v6.842H404V87.801z"/>
</g>
</svg>
