<?xml version="1.0" encoding="utf-8"?>
<!-- Generator: Adobe Illustrator 18.1.0, SVG Export Plug-In . SVG Version: 6.00 Build 0)  -->
<svg version="1.1" id="Layer_1" xmlns="http://www.w3.org/2000/svg" xmlns:xlink="http://www.w3.org/1999/xlink" x="0px" y="0px"
	 viewBox="0 111.6 300 76.9" enable-background="new 0 111.6 300 76.9" xml:space="preserve">
<g>
	<g>
		<rect x="38.9" y="175.6" width="214.3" height="12"/>
		<g>
			<g>
				<g>
					<path d="M293.6,141.2c3.5,0,6.4,2.9,6.4,6.5s-2.9,6.4-6.4,6.5c-3.5,0-6.4-2.9-6.4-6.5C287.2,144.1,290.1,141.2,293.6,141.2z
						 M293.6,152.9c2.8,0,5.2-2.3,5.2-5.2s-2.3-5.2-5.2-5.2c-2.8,0-5.1,2.3-5.1,5.2C288.5,150.5,290.8,152.9,293.6,152.9z
						 M290.7,144.3h3.2c1.6,0,2.3,0.9,2.3,1.9s-0.7,1.8-1.8,1.9l0,0c0.6,0.2,0.8,0.6,1.3,1.4l0.9,1.6h-1.7l-0.6-1.1
						c-0.7-1.4-1.1-1.7-1.9-1.7H292v2.8h-1.4L290.7,144.3z M293.6,147.2c0.7,0,1.2-0.4,1.2-0.9c0-0.6-0.5-0.9-1.4-0.9h-1.2v1.9
						L293.6,147.2z"/>
				</g>
			</g>
			<path d="M29.5,172.2c-4.1,3.8-6,4.9-8.7,4.9c-6.6,0-9.2-7.9-9.2-27.1c0-19.3,2.6-27.1,8.9-27.1c2.6,0,5.6,1.6,8.1,4.2l1.9,2V116
				l-0.5-0.4c-3.3-2.5-7.1-4-10.1-4C7.3,111.6,0,125.8,0,150.4c0,24.1,7.2,38,19.7,38c4,0,7.4-1.3,11.1-4.4l0.5-0.4v-13.2
				L29.5,172.2z"/>
			<path d="M59.9,114.7h-0.8h-8.7l-11.6,56.2h9.4c0,0,2.1-10.5,2.3-11.9c1.3,0,8.1,0,9.4,0c0.2,1.4,2.1,11.9,2.1,11.9h9.4
				L59.9,114.7z M58.2,150.5c-1.5,0-4.7,0-6.1,0c0.3-1.6,2-11.1,3.1-16.7C56.1,139.4,57.9,148.8,58.2,150.5z"/>
			<path d="M110.7,115h-7.2c0,0-6.7,15.1-8.2,18.3c-1.4-3.3-8.2-18.3-8.2-18.3h-8.2v55.8h9.4l-0.4-35.5l7.3,17.4l7.3-17.4l-0.4,35.5
				h9.4V115H110.7z"/>
			<path d="M132.8,162.4c0-1.7,0-14.7,0-16.4c1.7,0,12.4,0,12.4,0v-8.4c0,0-10.7,0-12.4,0c0-1.6,0-12.5,0-14.1c1.7,0,13.5,0,13.5,0
				v-8.4h-1h-22.1v55.8H147v-8.4C147,162.4,134.5,162.4,132.8,162.4z"/>
			<path d="M167.3,162.4c0-1.9,0-47.4,0-47.4h-1h-8.6v55.8h23.1v-8.4C180.8,162.4,169,162.4,167.3,162.4z"/>
			<path d="M207.2,140.8c4.4-2.9,6.9-6.9,6.9-11.5c0-7-6.2-14.3-16.6-14.3h-9.1h-1v55.8h8.2c14.6,0,19.8-8.5,19.8-16.5
				C215.4,148.1,212.5,143.7,207.2,140.8z M197.4,162.4c0,0-0.2,0-0.4,0c0-1.7,0-14.5,0-16.1c0.1,0,0.3,0,0.3,0
				c7.8,0,8.4,6.3,8.4,8.3C205.8,159.5,202.7,162.4,197.4,162.4z M197,137.8c0-1.7,0-12.6,0-14.3c4.8,0.1,7.4,2.5,7.4,6.9
				C204.5,135,201.7,137.7,197,137.8z"/>
			<path d="M241.6,114.7h-0.8h-8.7l-11.6,56.2h9.4c0,0,2-10.5,2.3-11.9c1.3,0,8.1,0,9.4,0c0.3,1.4,2.1,11.9,2.1,11.9h9.4
				L241.6,114.7z M239.9,150.5c-1.5,0-4.7,0-6.2,0c0.3-1.6,2.1-11.1,3.1-16.7C237.8,139.4,239.6,148.8,239.9,150.5z"/>
			<path d="M293.4,187.5c0,0-13.3-37.5-13.7-38.4c0.3-0.9,11-34.9,11-34.9h-1.6h-9.7l-7.8,28.8v-28.8h-1.1h-9.8v73.3h10.9v-31.2
				l10.4,31.1L293.4,187.5z"/>
		</g>
	</g>
</g>
</svg>
