<?xml version="1.0" encoding="utf-8"?>
<!-- Generator: Adobe Illustrator 16.0.0, SVG Export Plug-In . SVG Version: 6.00 Build 0)  -->
<!DOCTYPE svg PUBLIC "-//W3C//DTD SVG 1.1//EN" "http://www.w3.org/Graphics/SVG/1.1/DTD/svg11.dtd">
<svg version="1.1" id="Layer_1" xmlns="http://www.w3.org/2000/svg" xmlns:xlink="http://www.w3.org/1999/xlink" x="0px" y="0px"
	 width="1420px" height="470px" viewBox="0 0 1420 470" enable-background="new 0 0 1420 470" xml:space="preserve">
<g>
	<path d="M682.155,432.92c-0.355,0.357-0.933,0.357-1.289,0c0,0,0,0-0.003,0c-4.728-3.924-10.703-6.021-16.841-5.918
		c-8.34-0.846-15.784,5.23-16.629,13.566c-0.03,0.311-0.052,0.615-0.064,0.926v0.912c0.435,8.367,7.571,14.801,15.941,14.363
		c0.377-0.02,0.754-0.055,1.128-0.104c6.044-0.055,11.897-2.141,16.616-5.918c0.356-0.352,0.934-0.352,1.289,0c0,0,0,0,0.003,0
		l5.993,6.83c0.356,0.352,0.356,0.93,0.003,1.289c-0.003,0-0.003,0-0.003,0c-7.057,5.801-15.987,8.824-25.115,8.502
		c-19.046,0-31.26-11.537-31.26-25.268v-0.984c0-13.738,12.746-25.572,31.488-25.572c9.219-0.291,18.225,2.779,25.343,8.648
		c0.319,0.371,0.319,0.918,0,1.289L682.155,432.92z"/>
	<path d="M732.688,467.672c-18.288,0-30.351-11.912-30.351-25.346v-1.137c0-13.578,11.986-25.34,30.351-25.34
		c18.358,0,30.348,11.762,30.348,25.34v1.217C762.884,455.832,750.822,467.672,732.688,467.672z M747.332,441.117
		c0-8.088-6.559-14.65-14.644-14.65c-8.088,0-14.646,6.563-14.646,14.65v1.289c0,8.088,6.559,14.643,14.646,14.643
		c8.085,0,14.644-6.555,14.644-14.643v-1.217V441.117z"/>
	<path d="M603.092,417.668v-2.73l-2.505,1.137c-6.856,2.98-13.968,5.34-21.244,7.055c-35.483,6.621-71.337,11.08-107.364,13.354
		l-49.241,3.193v3.186l49.241,2.5c36.742,1.453,73.332,5.533,109.489,12.217c6.607,1.611,12.877,4.385,18.514,8.197l2.274,1.744
		v-2.809c0.225-3.916-0.45-7.838-1.97-11.457c-1.444-3.795-3.411-7.369-5.844-10.623l-0.684-0.986
		c2.633-3.971,4.822-8.221,6.528-12.672C601.66,425.33,602.603,421.535,603.092,417.668z"/>
	<path d="M971.543,439.523l-49.244-2.506c-52.432-3.57-93.25-8.27-109.186-12.594c-6.607-1.611-12.877-4.391-18.514-8.197
		l-2.274-1.746v2.811c-0.226,3.916,0.45,7.838,1.974,11.457c1.441,3.795,3.408,7.369,5.841,10.623l0.685,0.984
		c-2.634,3.973-4.822,8.223-6.525,12.668c-1.299,3.758-2.138,7.656-2.506,11.615v2.73l2.506-1.139
		c6.855-2.979,13.965-5.344,21.244-7.059c35.486-6.617,71.34-11.074,107.363-13.355l49.242-3.186v-3.188L971.543,439.523z"/>
	<path d="M486.85,393.689c-13.655,2.129-18.511-3.033-18.511-16.766c0-8.045,0-1.975,0-10.094
		c0.891-5.334-2.709-10.375-8.039-11.268c-1.904-0.316-3.859-0.068-5.619,0.723c-5.008,1.137-17.83,3.418-17.83,3.418v42.865
		l-15.631,3.113c-7.209,1.516-17.376,4.02-17.376,4.02s0-83.84,0-133.162c17.981-3.867,35.51-7.584,54.1-10.775
		c25.343-4.701,41.959,8.27,41.579,29.596c0,5.061,0,9.992,0,14.795c0.064,12.709-8,24.045-20.031,28.15l0,0
		c10.751-0.633,19.979,7.57,20.612,18.322c0.03,0.541,0.04,1.088,0.027,1.629c0,7.59,0,5.236,0,13.129
		c1.213,5.32,4.634,9.875,9.407,12.521c-1.255,2.377-2.648,4.682-4.174,6.902L486.85,393.689z M467.199,306.512
		c0-8.652-1.518-15.779-11.533-13.811l-18.967,4.1v40.969c0,0,12.442-2.195,17.525-3.564c9.788-2.201,13.126-9.029,12.974-20.334
		v-7.59V306.512z"/>
	<path d="M731.549,378.365c-16.541,0-52.279,0-52.279,0V244.066c0,0,36.194,0,52.051,0c32.324,0.607,49.697,20.863,49.85,44.008
		c0,19.047,0,33.385,0,52.432C781.701,364.557,764.176,379.424,731.549,378.365z M747.712,287.314
		c0.924-9.127-5.729-17.283-14.859-18.207c-1.316-0.133-2.648-0.109-3.958,0.072h-16.012c0,29.287,0,84.297,0,84.297h16.012
		c13.049,0,18.891-5.838,18.817-16.996C747.633,318.576,747.633,305.297,747.712,287.314z"/>
	<path d="M815.619,383.754c0-46.971,0-89.227,0-136.574c11.152,0.906,22.004,1.744,33.461,2.955c0,47.572,0,89.232,0,136.574
		C838.38,386.027,826.619,384.514,815.619,383.754z"/>
	<path d="M964.182,406.363c0,0-38.925-68.291-43.477-77.314c0,27.613,0,68.818,0,68.818l-31.487-5.084c0,0,0-89.609,0-137.869
		c9.56,1.289,18.134,2.201,28.529,3.875c11.456,21.848,43.021,87.402,47.347,96.584c0-28.605,0-60.166,0-88.85
		c9.256,1.672,16.918,3.338,29.666,5.844c0,50.686,0,141.129,0,141.129L964.182,406.363z"/>
	<path d="M342.386,321.004c0,39.381-0.456,93.477-0.456,105.391l-30.351,9.486c0-11.762,0-65.33,0-105.773
		c-10.73,3.732-21.241,8.063-31.488,12.977c0-8.727,0.76-21.703,0.76-30.352c30.144-11.043,60.838-20.51,91.96-28.379
		c0,8.877,0,19.428,0,28.229C362.453,314.539,352.276,317.355,342.386,321.004z"/>
	<path d="M1075.264,362.281v22.762l12.065,2.658c1.174,0.213,2.031,1.227,2.046,2.426l0,0c0,7.59,1.746,16.541-13.959,17.756
		c-8.58,0.949-16.309-5.234-17.261-13.816c-0.109-1.002-0.124-2.018-0.04-3.027v-61.686l0,0
		c-0.422-7.072,4.969-13.148,12.038-13.568c1.493-0.084,2.991,0.086,4.427,0.512c14.264,2.129,15.78,13.584,16.236,23.375
		c0,1.74,0,6.295,0,6.295s19.955,2.504,29.213,3.945v-10.775c0-22.232-15.631-42.488-45.525-48.939
		c-29.895-6.447-47.347,11.535-47.347,33.008v68.971c0,0,0,6.373,0,7.584c1.593,20.182,15.935,34.984,42.567,34.984
		c13.506,0,25.115-3.723,30.35-14.498l0,0l3.868,13.129h15.179v-61.99L1075.264,362.281z"/>
	<path d="M263.399,62.269c-0.605-13.96-5.613-18.892-17.073-19.347h-4.171c0,0,0-13.43,0-21.7c0-8.271,0-18.894,0-18.894
		s42.035,0.608,65.329,0.608s61.686-0.608,61.686-0.608s0,10.926,0,17.679s0,18.286,0,18.286c-4.917-0.462-9.87,0.403-14.342,2.504
		c-7.13,3.643-7.586,8.802-8.042,21.853c-0.757,21.776-0.681,95.907,0,117.227c1.14,27.617,9.788,36.8,30.883,34.142
		c21.092-2.654,30.35-13.503,31.563-39.91c1.061-18.134,0.608-97.649,0-112.75c0-10.85,0-17.905-9.939-21.927
		c-3.792-0.792-7.659-1.173-11.533-1.139c0,0,0-11.608,0-18.59c0-6.979,0-11.761,0-15.856c0-0.608,0-1.519,0-1.519
		s28.605,0.608,43.4,0.608c18.362,0,51.063-0.608,51.063-0.608s0,10.32,0,16.693c0,6.374,0,16.768,0,16.768h-3.715
		c-8.854-1.128-16.948,5.136-18.076,13.99c-0.149,1.173-0.167,2.361-0.061,3.538c-1.061,20.563,0,98.639,0,119.199
		c0,54.556-37.937,76.938-95.828,86.499c-72.462,12.594-101.295,3.338-101.295-64.798C263.399,170.77,264.463,89.357,263.399,62.269
		z"/>
	<path d="M621.758,33.892h-4.707c-13.731,0-20.56,5.083-21.548,17.072c-0.985,11.989-1.137,105.011,0,118.441
		c1.14,13.43,8.727,15.175,21.171,15.175h5.008c20.031-0.608,27.769-5.388,27.769-46.358c9.334,0,38.697,0,38.697,0v76.481
		c0,0-38.849,0-93.858,4.251c-53.112,3.867-101.444,11.533-101.444,11.533v-38.621l6.829-0.532
		c14.339-1.062,15.175-8.422,16.313-20.864c1.137-12.445,1.289-107.668,0-117.456c-1.289-9.789-4.399-15.175-10.697-15.934
		c-3.63-0.684-7.313-1.04-11.003-1.063c0,0,0.456-10.471,0.456-17.072c0-4.401,0-16.161,0-16.161s40.743,0.607,63.812,0.607
		c23.065,0,63.431-0.607,63.431-0.607s-0.532,10.244-0.608,15.174C621.302,22.889,621.758,33.892,621.758,33.892z"/>
	<path d="M700.137,49.751c-0.608-11.078-6.829-15.859-18.061-15.859h-3.259c0-7.588,0-24.128,0-31.564
		c0,0,42.032,0.608,65.326,0.608c23.296,0,56.682-0.608,61.688-0.608c0,3.795,0,9.789,0,15.782c0,5.994,0,16.162,0,16.162h-2.886
		c-11.229,0-18.361,4.553-18.967,15.706c-0.912,18.438-0.836,81.034,0,99.548c1.289,23.825,10.092,33.081,31.336,34.069
		c21.244,0.985,30.351-7.589,31.412-31.868c0.836-16.617,0.76-86.727,0-100.687c0.9-8.333-5.127-15.817-13.457-16.717
		c-1.152-0.123-2.314-0.116-3.464,0.024h-4.932c0,0,0-10.092,0-16.541c0-6.449,0-15.175,0-15.175s25.038,0.531,43.4,0.606
		c18.362,0.076,46.058-0.606,50.989-0.606c0,3.945,0,10.244,0,16.541s0,16.997,0,16.997h-5.084c-11.38,0-16.011,4.627-16.615,16.313
		c-0.837,20.031,0,83.994,0,104.329c0,54.024-37.332,67.755-95.527,64.569c-73.219-3.566-102.661-23.446-102.661-68.896
		C699.833,133.745,701.122,71.147,700.137,49.751z"/>
	<path d="M1083.76,42.922c-0.529,29.895,0,138.319,0.684,148.259c-0.273,12.123,9,22.333,21.096,23.218l6.524,0.988
		c0,8.422,0,58.27,0,58.27s-33.464-11.152-67.073-19.727c-30.352-7.59-66.771-15.172-66.771-15.172s0-33.387,0-41.052l6.524,0.685
		c14.264,1.593,20.484-5.008,21.32-16.389c0.605-9.711,0.605-113.814,0-141.888h-7.133c-15.175-0.38-20.183,8.802-21.016,24.204
		l-1.289,19.955c-10.244-1.137-32.4-2.276-42.644-2.276c0.836-19.12,0-59.03-1.897-78.759V2.328l116.242,0.608l108.881-0.608v1.063
		c-1.52,23.75-2.354,71.549-1.443,94.541c-10.24-1.593-32.17-3.567-42.412-3.871l-1.29-22.762
		c-0.987-17.375-6.3-27.999-21.171-28.529L1083.76,42.922z"/>
	<path d="M159.602,2.328H4.361v38.317c0,0,22.761-0.606,22.761,17.453v324.67c0,17.447-22.761,15.174-22.761,15.174v40.518h151.221
		c17.905,0,82.55-7.59,82.55-107.816c0-2.736,0-229.145,0-231.727C233.884,6.273,170.833,2.328,159.602,2.328z M122.121,394.377
		c-15.556,0-18.514-8.727-18.514-8.727V51.116c0-5.842,6.905-8.12,16.769-8.12c9.864,0,35.586,2.125,37.937,54.783
		c0,2.502,0,212.45,0,215.331C158.464,373.508,137.673,394.377,122.121,394.377z"/>
	<path d="M1168.666,2.328l63.961,0.608l50.913-0.608v38.773c0,0-16.084,0-16.084,14.341c0,12.671,0,66.768,0,66.768h50.229
		c0,0,0-60.698,0-66.616c-0.365-8.114-7.055-14.502-15.176-14.493V2.328l60.093,0.608l52.504-0.608v38.697
		c0,0-20.788-1.289-20.788,18.134v324.82c0,13.281,21.32,13.281,21.32,13.281v41.047h-115.178v-42.189
		c0,0,15.175-1.137,15.175-11.531V186.553h-48.484v197.96c0,10.697,14.34,11.604,14.34,11.604v42.264h-112.825v-41.504
		c0,0,22.762,1.137,22.762-14.412V59.234c0-19.044-22.762-18.134-22.762-18.134V2.328z"/>
	<path d="M647.329,378.895c-12.141-45.521-27.696-85.967-39.761-131.867c-12.67,0.834-25.568,1.971-36.875,3.035
		c-7.586,30.35-14.187,50.686-21.776,81.637c-2.521,0.299-5.065,0.299-7.586,0c-3.208-0.754-6.333-1.818-9.332-3.186
		c1.016,7.369,3.603,14.436,7.586,20.719c1.283,1.447,2.794,2.682,4.476,3.635c0,0-7.206,25.268-9.483,34.682
		c10.852-1.295,30.351-3.188,30.351-3.188l8.27-32.021l33.61-7.59l8.425,36.043C623.579,379.807,640.877,379.127,647.329,378.895z
		 M578.51,328.057l11.305-41.502l11.836,36.346L578.51,328.057z"/>
</g>
</svg>
