<?xml version="1.0" standalone="no"?>
<!DOCTYPE svg PUBLIC "-//W3C//DTD SVG 20010904//EN"
 "http://www.w3.org/TR/2001/REC-SVG-20010904/DTD/svg10.dtd">
<svg version="1.0" xmlns="http://www.w3.org/2000/svg"
 width="200.000000pt" height="200.000000pt" viewBox="0 0 200.000000 200.000000"
 preserveAspectRatio="xMidYMid meet">

<g transform="translate(0.000000,200.000000) scale(0.100000,-0.100000)"
fill="#000000" stroke="none">
<path d="M913 1324 c-4 -10 1 -20 12 -27 15 -8 11 -13 -33 -34 -57 -27 -84
-59 -100 -117 -10 -34 -9 -39 9 -43 22 -6 26 -23 4 -23 -7 0 -18 -6 -22 -14
-4 -8 -17 -15 -28 -18 -14 -2 -20 -11 -20 -28 l0 -25 223 -3 222 -2 0 30 c0
25 -4 30 -25 30 -16 0 -25 6 -25 15 0 8 -7 15 -15 15 -8 0 -15 5 -15 10 0 6 7
10 15 10 19 0 20 42 1 79 -19 37 -82 91 -105 91 -27 0 -33 11 -15 31 23 25 9
39 -37 39 -27 0 -42 -5 -46 -16z m65 -11 c-10 -2 -28 -2 -40 0 -13 2 -5 4 17
4 22 1 32 -1 23 -4z m59 -70 c34 -16 67 -60 78 -104 6 -23 3 -27 -22 -30 -15
-2 -88 -3 -160 -1 -129 3 -133 4 -133 25 0 30 33 82 65 103 53 34 107 37 172
7z m83 -184 c0 -5 -66 -9 -160 -9 -93 0 -160 4 -160 9 0 14 45 16 193 13 71
-2 127 -7 127 -13z m50 -44 c0 -13 -30 -15 -210 -15 -180 0 -210 2 -210 15 0
13 30 15 210 15 180 0 210 -2 210 -15z"/>
<path d="M334 906 c-71 -31 -55 -137 23 -152 27 -5 37 -1 63 24 36 36 39 71 8
106 -30 32 -56 38 -94 22z m81 -26 c39 -43 9 -110 -51 -110 -57 0 -85 69 -44
110 26 26 72 26 95 0z"/>
<path d="M1294 910 c-42 -17 -65 -71 -48 -115 4 -8 20 -23 36 -31 79 -41 155
54 96 120 -27 29 -55 38 -84 26z m76 -37 c36 -46 8 -103 -50 -103 -34 0 -57
18 -65 50 -9 36 27 80 65 80 19 0 36 -9 50 -27z"/>
<path d="M110 904 c27 -8 64 -87 57 -123 -6 -26 -3 -31 13 -31 10 0 22 5 25
10 3 6 1 10 -4 10 -29 0 7 96 47 128 14 10 12 12 -12 12 -15 0 -25 -4 -21 -10
6 -10 -22 -60 -34 -60 -11 0 -41 57 -34 64 3 3 -7 5 -23 5 -16 -1 -22 -3 -14
-5z"/>
<path d="M477 902 c6 -4 13 -34 15 -67 3 -52 6 -61 29 -74 24 -13 29 -13 53 2
23 16 26 24 26 76 0 38 4 61 13 64 6 3 -1 5 -18 5 -16 0 -24 -2 -17 -5 16 -6
16 -105 0 -121 -7 -7 -21 -12 -33 -12 -12 0 -26 5 -33 12 -16 16 -16 115 1
121 6 3 -1 6 -18 6 -17 0 -25 -3 -18 -7z"/>
<path d="M648 903 c15 -6 17 -133 1 -133 -5 0 -7 -4 -4 -10 3 -5 14 -10 24
-10 15 0 17 8 13 63 l-4 62 61 -60 61 -59 0 71 c0 48 4 73 13 76 6 3 -1 5 -18
5 -16 0 -24 -2 -17 -5 11 -4 19 -113 8 -113 -3 0 -30 27 -62 60 -31 33 -64 60
-73 59 -10 0 -12 -2 -3 -6z"/>
<path d="M879 900 c-26 -15 -41 -62 -30 -93 24 -63 111 -76 111 -17 0 22 -5
30 -17 29 -11 0 -13 -3 -5 -6 6 -2 12 -13 12 -24 0 -14 -7 -19 -28 -19 -36 0
-62 28 -62 67 0 37 18 54 68 64 l37 7 -35 1 c-19 0 -42 -4 -51 -9z"/>
<path d="M1068 898 c14 -14 16 -128 2 -128 -5 0 -10 -4 -10 -10 0 -5 9 -10 19
-10 11 0 23 5 26 10 3 6 1 10 -4 10 -6 0 -11 14 -11 30 0 29 2 30 46 30 l47 0
-6 -40 c-4 -33 -2 -40 12 -40 14 0 16 9 13 71 -3 53 -1 74 9 80 10 6 7 9 -11
9 -24 0 -26 -3 -22 -35 l4 -35 -46 0 c-44 0 -46 1 -46 29 0 16 6 32 13 34 6 3
-1 6 -17 6 -23 1 -27 -2 -18 -11z"/>
<path d="M1420 893 c0 -13 3 -14 12 -5 7 7 20 12 30 12 15 0 18 -9 18 -65 0
-37 -4 -65 -10 -65 -5 0 -10 -4 -10 -10 0 -5 11 -10 25 -10 14 0 25 5 25 10 0
6 -4 10 -10 10 -6 0 -10 28 -10 65 0 56 3 65 18 65 10 0 23 -5 30 -12 9 -9 12
-8 12 5 0 14 -10 17 -65 17 -55 0 -65 -3 -65 -17z"/>
<path d="M1577 833 l1 -78 51 -3 c48 -3 51 -2 50 20 0 13 -3 17 -6 11 -2 -7
-20 -13 -39 -13 -31 0 -34 3 -34 29 0 27 4 30 38 34 l37 4 -37 1 c-35 2 -38 4
-38 32 0 26 4 30 28 30 15 0 33 -5 40 -12 9 -9 12 -8 12 5 0 14 -10 17 -52 17
l-53 0 2 -77z"/>
<path d="M1709 901 c10 -6 12 -27 9 -80 l-4 -72 50 3 c27 2 51 8 53 14 3 8
-10 10 -42 7 l-45 -6 0 66 c0 43 4 67 13 70 6 3 -1 6 -18 6 -21 0 -26 -2 -16
-8z"/>
</g>
</svg>
